<svg width="96" height="96" viewBox="0 0 96 96" fill="none" xmlns="http://www.w3.org/2000/svg">
<g filter="url(#filter0_d_1317_51118)">
<path d="M43.9536 68.3212C34.6527 68.3212 27.1129 60.7813 27.1129 51.4804C27.1129 42.1795 34.6527 34.6396 43.9536 34.6396C53.2545 34.6396 60.7943 42.1795 60.7943 51.4804C60.7943 60.7813 53.2545 68.3212 43.9536 68.3212Z" fill="#72D1FC"/>
<path d="M47.8465 47.002C46.6115 47.002 45.609 48.0044 45.609 49.2394C45.609 50.4744 46.6115 51.4768 47.8465 51.4768C49.0814 51.4768 50.0839 50.4744 50.0839 49.2394C50.0839 48.0044 49.0814 47.002 47.8465 47.002Z" fill="white"/>
<path d="M50.0839 49.2434C50.0839 49.8368 49.8513 50.3701 49.4784 50.7711C49.3661 50.7871 49.2498 50.7991 49.1296 50.7991C47.8625 50.7991 46.832 49.7727 46.832 48.5016C46.832 47.9563 47.0245 47.455 47.3412 47.0621C47.5016 47.026 47.67 47.002 47.8465 47.002C49.0814 47.002 50.0839 48.0044 50.0839 49.2434Z" fill="black"/>
<path d="M40.0316 47.002C38.7966 47.002 37.7942 48.0044 37.7942 49.2394C37.7942 50.4744 38.7966 51.4768 40.0316 51.4768C41.2666 51.4768 42.269 50.4744 42.269 49.2394C42.269 48.0044 41.2666 47.002 40.0316 47.002Z" fill="white"/>
<path d="M42.269 49.2434C42.269 49.8368 42.0365 50.3701 41.6636 50.7711C41.5513 50.7871 41.435 50.7991 41.3147 50.7991C40.0476 50.7991 39.0171 49.7727 39.0171 48.5016C39.0171 47.9563 39.2096 47.455 39.5264 47.0621C39.6868 47.026 39.8552 47.002 40.0316 47.002C41.2666 47.002 42.269 48.0044 42.269 49.2434Z" fill="black"/>
<path d="M43.2234 49.536C43.7045 49.8367 44.322 49.8367 44.8032 49.536C45.0999 49.3114 45.545 49.6603 45.0919 50.0011C44.4343 50.4101 43.5963 50.4101 42.9347 50.0011C42.4856 49.6603 42.9307 49.3114 43.2234 49.536Z" fill="black"/>
<path d="M59.9202 51.0594C60.1367 51.0554 60.3612 51.0675 60.6058 51.0594C63.2041 50.9793 64.2987 48.9664 64.423 46.6207C64.5955 43.4049 63.4086 40.2172 63.986 37.0054C64.0902 36.42 64.9082 36.5242 65.0686 37.0054C65.3854 37.9437 65.4455 38.914 65.5418 39.8804C65.6139 39.6157 65.7382 39.3752 65.9507 39.1907C66.1472 39.0183 66.5121 38.9541 66.7006 39.1907C66.8369 39.3671 66.9331 39.5476 67.0053 39.732C67.0494 39.5716 67.1136 39.4193 67.2058 39.2669C67.3902 38.9622 67.8273 38.894 68.0839 39.1546C68.2483 39.323 68.3485 39.5275 68.4087 39.7481C68.4688 39.6839 68.537 39.6238 68.6132 39.5756C68.8658 39.4193 69.1705 39.5355 69.3269 39.7641C69.7519 40.3816 69.9364 41.1795 69.9765 41.9213C70.0527 43.4851 70.4657 45.0088 70.5418 46.5766C70.6942 49.7202 70.1128 53.1645 67.5426 55.2536C66.1192 56.4084 64.399 56.9818 62.5986 57.1983C61.6644 57.3106 60.281 57.471 59.1262 57.2344C59.427 55.1694 59.8319 53.1365 59.9202 51.0594Z" fill="#72D1FC"/>
<path d="M64.8799 44.5357C65.353 44.7483 66.2071 44.7122 66.1269 43.9303C66.1149 43.83 66.2111 43.7097 66.3114 43.6897C66.6762 43.6175 67.9714 43.4611 68.0516 43.0161C68.1759 42.3545 66.564 42.9038 66.2432 42.8276C66.1309 42.7995 66.1069 42.6311 66.2111 42.575C66.7444 42.2943 68.4044 41.741 68.5488 42.7875C68.6731 43.6897 67.386 43.9503 66.6562 44.1227C66.6602 44.5157 66.4236 44.8325 66.0547 45.057C65.5415 45.3658 65.1125 45.2655 64.5952 45.037C64.2504 44.8886 64.5431 44.3874 64.8799 44.5357Z" fill="black"/>
<path d="M21.1022 67.9285C21.2946 66.1161 21.7397 64.3438 22.2449 62.5996C22.6459 61.2122 23.087 59.8208 23.5962 58.4575C24.1495 56.9739 24.747 55.5024 25.4968 54.107C25.8256 53.4975 26.1905 52.5633 26.6476 52.042C27.1287 51.4927 27.4776 50.811 27.9748 50.2817C28.492 51.5207 28.8489 53.3853 29.2298 54.6844C29.6268 56.0357 30.0318 57.3869 30.3726 58.7583C30.3806 58.7944 30.3926 58.8304 30.4047 58.8665C29.2298 61.3285 28.5682 64.1874 28.079 66.7937C28.075 66.8178 28.067 66.8378 28.055 66.8579C28.8369 67.311 29.8353 68.4337 29.3381 69.3158C28.8449 70.194 27.6981 69.1274 27.217 68.7184C27.2049 69.6246 27.1769 70.5588 26.9603 71.437C26.8481 71.8861 26.6315 72.7963 26.0982 72.9526C25.581 73.105 25.3404 72.5998 25.2362 72.0144C25.0758 72.696 24.7911 73.3456 24.0894 73.1331C23.6162 72.9887 23.524 72.4915 23.536 71.9462C23.3356 72.4033 23.0028 72.7121 22.5096 72.4755C22.0885 72.271 22.0485 71.6936 22.0404 71.2886C22.0404 71.2726 22.0404 71.2565 22.0404 71.2405C20.617 72.4274 21.05 68.4096 21.1022 67.9285Z" fill="#72D1FC"/>
<path d="M65.4176 40.0335C65.4377 39.7448 65.8948 39.7408 65.8707 40.0335C65.8426 40.4024 65.8627 41.9381 66.4762 41.8659C66.817 41.8258 66.8932 41.2644 66.9052 40.7753C66.8812 40.5066 66.8771 40.242 66.8691 40.0335C66.8571 39.7528 67.2741 39.7448 67.3182 40.0054C67.3383 40.0375 67.3543 40.0776 67.3543 40.1257C67.3543 40.2981 67.3583 40.5387 67.3503 40.7913C67.3944 41.3166 67.5387 41.8739 68.0119 41.7737C68.5051 41.6694 68.1482 40.5387 68.1723 40.1858C68.1843 40.0294 68.3206 39.9613 68.4409 39.9733C68.5492 39.9452 68.6735 39.9853 68.7056 40.1257C68.7818 40.4545 68.7898 40.7953 68.878 41.1161C68.9462 41.3647 69.2469 41.902 69.5396 41.5692C69.7321 41.3486 70.0528 41.6734 69.8604 41.89C69.5316 42.2589 69.0464 42.1546 68.7376 41.8178C68.7056 41.7817 68.6815 41.7456 68.6534 41.7055C68.5853 41.9942 68.4048 42.2067 68.0079 42.2268C67.5949 42.2508 67.3343 42.0664 67.1739 41.7857C67.0456 42.0904 66.833 42.307 66.4802 42.319C65.4818 42.3551 65.3655 40.7191 65.4176 40.0335Z" fill="black"/>
<path d="M25.5247 69.003C25.5287 68.7705 25.8936 68.7705 25.8896 69.003C25.8655 70.0335 25.5969 71.0279 25.4806 72.0464C25.4565 72.275 25.0916 72.279 25.1157 72.0464C25.232 71.0279 25.4966 70.0335 25.5247 69.003Z" fill="black"/>
<path d="M24.4664 68.8783C24.2499 69.9208 24.0294 70.9593 23.8129 72.0019C23.7648 72.2304 23.4159 72.1342 23.464 71.9056C23.6805 70.8631 23.9011 69.8246 24.1176 68.7821C24.1657 68.5535 24.5146 68.6497 24.4664 68.8783Z" fill="black"/>
<path d="M23.231 68.5019C22.9423 69.4963 22.4852 70.4305 22.1845 71.4249C22.1163 71.6495 21.7675 71.5533 21.8356 71.3287C22.1323 70.3343 22.5935 69.4041 22.8822 68.4056C22.9423 68.1811 23.2951 68.2773 23.231 68.5019Z" fill="black"/>
<path d="M45.9144 37.9238C46.8045 38.393 47.8992 39.2992 47.2857 40.4179C47.0732 40.8068 46.6762 41.0233 46.2312 40.9431C45.6818 40.8429 45.3089 40.3337 45.0162 39.9006C44.8839 39.7081 45.2007 39.5237 45.329 39.7162C45.5214 40.0049 45.762 40.3577 46.0868 40.5101C46.6 40.7547 47.009 40.3898 47.0772 39.8846C47.1855 39.0586 46.3595 38.5614 45.7299 38.2326C45.5254 38.1283 45.7059 37.8156 45.9144 37.9238Z" fill="black"/>
<path d="M45.3208 39.7566C45.9704 40.5946 45.6175 41.8657 44.5229 42.0742C43.4443 42.2827 42.6022 41.2482 42.915 40.2217C42.9831 39.9971 43.336 40.0934 43.2638 40.3179C43.0353 41.0597 43.5846 41.8376 44.3905 41.7253C45.2125 41.6131 45.5614 40.6587 45.0602 40.0132C44.9198 39.8287 45.1764 39.5721 45.3208 39.7566Z" fill="black"/>
<path d="M43.3116 40.4419C42.9908 41.1557 42.1167 42.122 41.2826 41.4243C40.4767 40.7507 40.9659 39.1829 41.443 38.4772C41.5754 38.2847 41.8881 38.4652 41.7558 38.6616C41.3749 39.223 41.0581 40.0971 41.3187 40.7748C41.5192 41.292 41.9964 41.4003 42.4294 41.0795C42.7061 40.875 42.8585 40.5622 42.9948 40.2535C43.095 40.045 43.4078 40.2334 43.3116 40.4419Z" fill="black"/>
<path d="M64.6594 24.5432C66.0027 23.6731 67.7589 23.6731 69.1022 24.5432C70.4494 25.4133 71.0389 27.1656 70.8705 28.7614C70.7021 30.3573 69.7718 31.7888 68.8175 33.0799H67.0372H66.7284H64.9481C63.9938 31.7888 63.0636 30.3613 62.8952 28.7614C62.7228 27.1656 63.3122 25.4133 64.6594 24.5432Z" fill="#FFB744"/>
<path d="M64.6115 28.9102C64.6155 28.9062 64.6155 28.9022 64.6195 28.8982C64.6195 28.8982 64.6195 28.8982 64.6195 28.8942C64.7197 28.7057 65.0285 28.5413 65.241 28.6215C65.3773 28.6736 65.4816 28.7619 65.5818 28.8501L65.65 28.9102C65.7703 29.0105 65.8745 29.0546 65.9587 29.0465C66.063 29.0345 66.1552 28.9343 66.2555 28.83C66.3798 28.6977 66.5321 28.5333 66.7527 28.5293C67.0053 28.5293 67.1536 28.7057 67.29 28.8621C67.3942 28.9824 67.4904 29.0907 67.6027 29.1107C67.707 29.1267 67.8273 29.0706 67.9836 28.9303L68.0277 28.8862C68.1561 28.7659 68.3044 28.6295 68.5049 28.5935C68.6693 28.5614 68.9099 28.6456 69.0502 28.7899C69.1184 28.8581 69.1464 28.9383 69.1505 29.0185C69.1545 29.0345 69.1545 29.0506 69.1545 29.0666C69.1545 29.0746 69.1585 29.0826 69.1545 29.0866L69.1464 29.1308L68.0598 33.2086C68.0478 33.2567 68.0157 33.2888 67.9676 33.3009C67.9556 33.3049 67.9435 33.3049 67.9315 33.3049C67.8914 33.3049 67.8553 33.2888 67.8273 33.2648C67.7952 33.2327 67.7832 33.1846 67.7952 33.1365L68.8898 29.0265C68.8898 29.0225 68.8818 29.0024 68.8577 28.9784C68.7776 28.8982 68.6252 28.8461 68.561 28.8581C68.4367 28.8822 68.3285 28.9824 68.2162 29.0866L68.1681 29.1308C68.0478 29.239 67.8633 29.3834 67.6428 29.3834C67.6147 29.3834 67.5867 29.3794 67.5586 29.3753C67.3461 29.3393 67.2058 29.1789 67.0815 29.0345C66.9692 28.9062 66.873 28.7979 66.7567 28.7979C66.6484 28.802 66.5522 28.9022 66.4519 29.0105C66.3316 29.1388 66.1953 29.2871 65.9908 29.3152C65.8304 29.3352 65.654 29.2711 65.4736 29.1187C65.4495 29.0987 65.4295 29.0826 65.4094 29.0626L65.4014 29.0546C65.3172 28.9784 65.237 28.9102 65.1448 28.8781C65.0886 28.8581 64.9403 28.9182 64.8801 28.9944C65.0606 29.6681 65.241 30.3377 65.4214 31.0113C65.6139 31.721 65.8064 32.4307 65.9948 33.1405C66.0069 33.1886 65.9948 33.2327 65.9627 33.2688C65.9347 33.2968 65.8986 33.3129 65.8585 33.3129C65.8465 33.3129 65.8344 33.3129 65.8224 33.3089C65.7783 33.2968 65.7462 33.2648 65.7302 33.2166C65.5417 32.5069 65.3493 31.8012 65.1568 31.0955C64.9683 30.4018 64.7799 29.7082 64.5954 29.0105C64.5914 28.9944 64.5914 28.9784 64.5914 28.9623L64.5834 28.9583L64.6115 28.9102Z" fill="black"/>
<path d="M72.9357 25.2008C72.5828 25.3892 72.23 25.5777 71.8771 25.7661C71.6205 25.9025 71.3879 25.5135 71.6486 25.3732C72.0014 25.1847 72.3543 24.9963 72.7071 24.8078C72.9637 24.6715 73.1923 25.0604 72.9357 25.2008Z" fill="black"/>
<path d="M70.5295 22.4784C70.301 22.735 70.0764 22.9916 69.8479 23.2523C69.6554 23.4728 69.3346 23.148 69.5271 22.9315C69.7556 22.6749 69.9802 22.4183 70.2087 22.1576C70.4012 21.9371 70.722 22.2579 70.5295 22.4784Z" fill="black"/>
<path d="M66.4518 22.5828C66.4518 22.1297 66.4518 21.6726 66.4518 21.2195C66.4518 20.9268 66.9049 20.9268 66.9049 21.2195C66.9049 21.6726 66.9049 22.1297 66.9049 22.5828C66.9089 22.8755 66.4518 22.8755 66.4518 22.5828Z" fill="black"/>
<path d="M63.4886 23.7692C63.1799 23.5045 62.8671 23.2399 62.5584 22.9753C62.3338 22.7868 62.6586 22.466 62.8792 22.6545C63.1879 22.9191 63.5007 23.1838 63.8094 23.4484C64.0339 23.6409 63.7092 23.9576 63.4886 23.7692Z" fill="black"/>
<path d="M61.7045 26.2796C61.2875 26.1272 60.8705 25.9749 60.4495 25.8225C60.1768 25.7223 60.2931 25.2852 60.5698 25.3854C60.9868 25.5378 61.4038 25.6902 61.8248 25.8425C62.0975 25.9388 61.9812 26.3798 61.7045 26.2796Z" fill="black"/>
<path d="M65.032 32.8877C66.263 32.8877 67.494 32.8877 68.725 32.8877C69.2623 32.8877 69.2623 33.7177 68.725 33.7177C67.494 33.7177 66.263 33.7177 65.032 33.7177C64.4947 33.7217 64.4947 32.8877 65.032 32.8877Z" fill="#90BBCA"/>
<path d="M65.4135 33.7217C66.428 33.7217 67.4464 33.7217 68.4609 33.7217C68.9942 33.7217 68.9982 34.5517 68.4609 34.5517C68.4489 34.5517 68.4368 34.5517 68.4208 34.5517C68.7055 34.7522 68.6333 35.3095 68.1922 35.3095C68.1161 35.3095 68.0359 35.3095 67.9597 35.3095C67.9757 35.3617 67.9877 35.4138 67.9797 35.4739C67.9156 36.1115 67.4464 36.5926 66.8811 36.5044C66.3678 36.4242 66.027 35.8869 65.9789 35.3095C65.9027 35.3095 65.8265 35.3095 65.7543 35.3095C65.3133 35.3095 65.2411 34.7522 65.5258 34.5517C65.4857 34.5517 65.4496 34.5517 65.4095 34.5517C64.8762 34.5557 64.8762 33.7217 65.4135 33.7217Z" fill="#90BBCA"/>
<path d="M65.0765 33.6533H68.8015C68.9178 33.6533 68.9178 33.8338 68.8015 33.8338H65.0765C64.9562 33.8338 64.9562 33.6533 65.0765 33.6533Z" fill="black"/>
<path d="M65.4091 34.4995H68.4685C68.5848 34.4995 68.5848 34.6799 68.4685 34.6799H65.4091C65.2889 34.684 65.2889 34.4995 65.4091 34.4995Z" fill="black"/>
<path d="M65.9226 35.3174H67.9515C68.0678 35.3174 68.0678 35.4978 67.9515 35.4978H65.9226C65.8063 35.5018 65.8063 35.3174 65.9226 35.3174Z" fill="black"/>
<path d="M68.1319 24.7714C69.3067 25.2365 70.1086 26.3953 70.1447 27.6543C70.1528 27.9471 69.6997 27.9471 69.6916 27.6543C69.6596 26.6118 68.9899 25.5934 68.0116 25.2084C67.7429 25.1042 67.8632 24.6631 68.1319 24.7714Z" fill="white"/>
<path d="M69.6955 28.866C69.6955 28.8619 69.6955 28.8579 69.6955 28.8539C69.6955 28.8259 69.6955 28.8018 69.6955 28.7737C69.6915 28.481 70.1486 28.481 70.1486 28.7737C70.1526 28.9862 70.1606 29.1948 70.1085 29.3992C70.0483 29.6438 69.6434 29.5997 69.6634 29.3391C69.6754 29.1827 69.7035 29.0263 69.6955 28.866Z" fill="white"/>
</g>
<defs>
<filter id="filter0_d_1317_51118" x="0.0361071" y="0.0361376" width="95.4216" height="95.5478" filterUnits="userSpaceOnUse" color-interpolation-filters="sRGB">
<feFlood flood-opacity="0" result="BackgroundImageFix"/>
<feColorMatrix in="SourceAlpha" type="matrix" values="0 0 0 0 0 0 0 0 0 0 0 0 0 0 0 0 0 0 127 0" result="hardAlpha"/>
<feOffset dx="0.722892" dy="0.722892"/>
<feGaussianBlur stdDeviation="10.8434"/>
<feComposite in2="hardAlpha" operator="out"/>
<feColorMatrix type="matrix" values="0 0 0 0 0 0 0 0 0 0 0 0 0 0 0 0 0 0 0.15 0"/>
<feBlend mode="normal" in2="BackgroundImageFix" result="effect1_dropShadow_1317_51118"/>
<feBlend mode="normal" in="SourceGraphic" in2="effect1_dropShadow_1317_51118" result="shape"/>
</filter>
</defs>
</svg>
