<svg width="159" height="136" viewBox="0 0 159 136" fill="none" xmlns="http://www.w3.org/2000/svg">
<path d="M118.804 67.2429C122.39 67.1387 125.976 67.0345 129.562 66.9406C131.407 66.8885 133.409 66.7738 134.826 65.5855C136.828 63.8967 136.786 60.8841 136.901 58.278C136.932 57.5587 136.88 54.4209 136.807 51.0956L136.265 41.8074C136.265 41.8074 130.448 35.3026 132.502 30.8514C134.555 26.4002 138.663 28.1098 138.663 28.1098C138.663 28.1098 137.349 14.9334 141.06 15.1002C145.115 15.2774 145.855 28.7978 145.855 28.7978C145.855 28.7978 146.689 14.1515 151.672 16.1217C154.393 17.2059 152.141 27.5886 152.141 27.5886C152.996 27.1612 153.893 26.7338 154.841 26.7546C156.551 26.7859 157.937 28.3391 158.323 29.9966C158.709 31.6645 158.323 33.4054 157.843 35.042C157.02 37.8774 155.811 40.7546 153.757 42.8082C153.83 43.6421 154.028 45.8834 154.184 47.6972C155.279 53.9935 155.31 60.3211 154.862 66.6904C154.518 71.6108 152.141 76.3643 148.43 79.6167C144.156 83.359 139.017 84.2243 133.503 84.537C132.199 84.61 118.867 85.0061 118.752 84.3806C117.762 78.96 119.951 72.6323 118.804 67.2429Z" fill="#ECA1FE"/>
<path d="M152.683 28.2032C151.526 29.2456 150.421 30.4861 149.733 31.8934C149.441 32.498 149.202 33.2277 149.431 33.8324C149.785 34.7497 150.911 34.6663 151.662 34.1972C152.287 33.8011 152.808 33.2382 153.34 32.7274C153.622 32.4668 153.903 32.1957 154.184 31.9247C154.476 31.6432 154.82 31.3826 155.071 31.0699C155.018 31.195 154.966 31.3305 154.914 31.4556C154.914 31.4348 154.914 31.4139 154.914 31.3931C155.05 31.5703 155.185 31.7475 155.321 31.9247C155.425 31.8934 155.56 31.8726 155.706 31.8517C155.759 31.6641 155.842 31.466 155.925 31.2575C156.144 31.956 155.091 32.2479 154.883 31.5807C154.799 31.3201 154.925 31.0595 155.123 30.9344C155.269 30.8406 155.456 30.8093 155.613 30.8718C155.831 30.9552 156.03 31.1429 156.019 31.4035C155.988 31.8205 155.696 32.0289 155.415 32.2896C155.081 32.6023 154.758 32.915 154.424 33.2277C153.851 33.7698 153.288 34.3432 152.662 34.8331C151.61 35.6566 149.983 36.1049 148.92 35.0207C147.388 33.4467 148.774 31.0803 149.837 29.6835C150.453 28.8808 151.141 28.1094 151.891 27.4318C152.433 26.9627 153.205 27.7341 152.683 28.2032Z" fill="#CD00FE"/>
<path d="M139.134 27.7988C140.583 28.1324 141.782 29.425 142.793 30.457C143.877 31.562 144.816 32.8234 145.347 34.2828C145.785 35.4712 146.265 37.5769 144.909 38.3483C143.679 39.0467 141.928 38.8382 140.688 38.2962C139.124 37.6186 138.175 36.1696 136.81 35.221C136.236 34.8248 136.778 33.8762 137.362 34.2724C138.613 35.1376 139.52 36.4719 140.886 37.1808C141.605 37.556 142.428 37.7124 143.242 37.6603C143.586 37.6394 143.982 37.5873 144.294 37.4309C144.722 37.212 144.68 36.7951 144.67 36.3781C144.607 34.7102 143.742 33.1674 142.668 31.9269C142.116 31.291 141.511 30.7072 140.886 30.1443C140.281 29.6022 139.666 29.0393 138.842 28.8517C138.154 28.6953 138.446 27.632 139.134 27.7988Z" fill="#CD00FE"/>
<path d="M140.404 37.1578C140.801 37.752 140.717 38.5651 140.373 39.1697C140.029 39.7535 139.456 40.1496 138.893 40.5249C138.653 40.6813 138.278 40.577 138.142 40.3268C137.996 40.0558 138.08 39.7431 138.34 39.5763C138.445 39.5033 138.559 39.4303 138.664 39.3574C138.716 39.3157 138.768 39.2844 138.82 39.2427C138.862 39.2114 138.893 39.201 138.83 39.2323C138.851 39.2114 138.872 39.201 138.893 39.1802C138.997 39.0968 139.091 39.0134 139.174 38.9195C139.226 38.8674 139.268 38.8153 139.32 38.7632C139.362 38.7111 139.341 38.7423 139.31 38.7736C139.331 38.7528 139.352 38.7111 139.372 38.6902C139.404 38.6381 139.435 38.586 139.466 38.5338C139.466 38.5234 139.497 38.4609 139.497 38.4609C139.518 38.3983 139.539 38.3462 139.55 38.2837C139.56 38.2524 139.56 38.2315 139.57 38.2003C139.591 38.096 139.57 38.2732 139.57 38.2107C139.57 38.1481 139.581 38.096 139.57 38.0335C139.57 38.0126 139.56 37.9709 139.56 37.9501C139.57 38.023 139.57 38.0439 139.57 38.0022C139.55 37.9188 139.539 37.8354 139.508 37.7937C139.529 37.8146 139.55 37.8771 139.518 37.8146C139.497 37.7833 139.477 37.7416 139.456 37.7103C139.299 37.4706 139.404 37.0953 139.654 36.9598C139.935 36.8242 140.238 36.9076 140.404 37.1578Z" fill="#CD00FE"/>
<path d="M153.599 43.454C152.338 43.7876 151.024 43.9335 149.721 43.8918C149.429 43.8814 149.169 43.652 149.169 43.3393C149.169 43.0474 149.419 42.7868 149.721 42.7972C150.941 42.8389 152.129 42.7034 153.307 42.3907C153.589 42.3177 153.901 42.4845 153.985 42.7764C154.058 43.0683 153.891 43.381 153.599 43.454Z" fill="#CD00FE"/>
<path d="M140.382 43.5177C138.913 43.7888 137.37 43.5073 136.119 42.6734C135.869 42.5066 135.764 42.1939 135.921 41.9228C136.067 41.6831 136.421 41.558 136.671 41.7248C137.682 42.4023 138.933 42.6734 140.09 42.4545C140.382 42.4023 140.685 42.5379 140.768 42.8402C140.841 43.1112 140.674 43.4656 140.382 43.5177Z" fill="#CD00FE"/>
<path d="M0.25584 121.315C0.412206 116.843 0.568566 112.371 1.16276 107.93C2.71599 96.4213 6.41665 85.2776 13.5782 76.1146C17.6437 70.9128 22.5953 67.2018 28.4121 64.3142V87.644C26.5983 89.3223 24.9304 91.4176 24.0964 93.0334C20.427 100.143 19.7286 108.847 18.3734 116.728C19.6035 118.688 21.678 120.106 23.471 121.575C24.2215 122.19 24.8574 123.295 24.701 124.254C24.5342 125.255 23.3563 125.703 22.3555 125.881C21.0212 126.11 19.4054 124.984 18.5611 125.057C18.436 125.985 18.3943 127.569 18.3004 128.528C18.2171 129.321 18.1232 130.123 17.9356 130.895C17.6958 132.761 16.5075 134.189 15.0793 134.189C13.9014 134.189 12.8902 133.219 12.4419 131.833C12.1501 133.678 10.8157 135.065 9.21038 135.065C7.39654 135.065 5.91627 133.272 5.91627 131.062C5.91627 130.957 5.93713 130.863 5.93713 130.759C5.90585 130.53 5.88501 130.301 5.86416 130.082C5.40549 131.468 4.39432 132.438 3.21636 132.438C1.61101 132.438 0.307965 130.645 0.307965 128.435C0.328814 128.08 0.193294 123.045 0.25584 121.315Z" fill="#ECA1FE"/>
<path d="M94.6624 103.736V129.541C94.6624 129.541 95.5693 129.933 99.8224 131.506C101.668 132.187 102.939 133.018 103.784 133.74C104.607 134.435 103.857 135.434 102.512 135.434H78.2857V103.736H94.6624Z" fill="#ECA1FE"/>
<path d="M53.7151 103.736V129.541C53.7151 129.541 52.8082 129.933 48.555 131.506C46.8558 132.133 45.6362 132.889 44.7918 133.571C43.864 134.32 44.7084 135.434 46.1991 135.434H70.0918V103.736H53.7151Z" fill="#ECA1FE"/>
<circle cx="51.0395" cy="51.0395" r="51.0395" transform="matrix(-1 0 0 1 124.898 7.8465)" fill="#ECA1FE"/>
<path d="M90.4705 63.1351C85.4848 63.1351 81.443 59.0934 81.443 54.1076C81.443 49.1219 85.4848 45.0801 90.4705 45.0801C95.4563 45.0801 99.498 49.1219 99.498 54.1076C99.498 59.0934 95.4563 63.1351 90.4705 63.1351Z" fill="#FFF7F5"/>
<path d="M68.7248 53.2033C68.7248 52.2755 69.4754 51.5354 70.4032 51.5354H73.666H74.0413H77.3041C78.2319 51.5354 78.9824 52.2859 78.9824 53.2033C78.9824 55.58 78.3465 59.6977 74.0413 60.1876C73.9787 60.2189 73.9162 60.2085 73.8536 60.2085C73.7911 60.2189 73.7285 60.2189 73.666 60.2293C69.3607 59.6977 68.7248 55.58 68.7248 53.2033Z" fill="black"/>
<path d="M71.4553 56.7157C71.4553 57.4766 72.5603 58.0917 73.9259 58.0917C75.2915 58.0917 76.3965 57.4766 76.3965 56.7157C76.3965 55.9547 75.2915 55.3396 73.9259 55.3396C72.5603 55.3396 71.4553 55.9547 71.4553 56.7157Z" fill="#EC5D8C"/>
<path d="M70.6131 0.539648C72.698 3.96927 72.9378 8.13903 72.698 12.0586C72.4895 15.4778 71.6868 19.1159 68.9765 21.451C68.4344 21.9201 67.6526 21.1382 68.1947 20.6691C70.7591 18.4487 71.4367 14.9983 71.6034 11.7563C71.7911 8.11818 71.593 4.29243 69.6541 1.10257C69.2788 0.487526 70.2378 -0.0649662 70.6131 0.539648Z" fill="#CD00FE"/>
<path d="M80.1296 4.32286C82.0894 9.94161 79.4729 15.6646 75.8035 19.9073C75.3344 20.4494 74.5526 19.6571 75.0217 19.1255C78.4409 15.1642 80.8906 9.85821 79.0559 4.62517C78.8162 3.94759 79.8899 3.6557 80.1296 4.32286Z" fill="#CD00FE"/>
<path d="M93.536 45.6335C97.0073 46.8949 99.4883 50.2098 99.4883 54.1085C99.4883 57.7988 97.2679 60.9678 94.0884 62.3647C90.7005 61.0303 88.3029 57.7362 88.3029 53.8792C88.3029 50.2307 90.4399 47.0929 93.536 45.6335Z" fill="black"/>
<path d="M56.5897 63.1378C51.6039 63.1378 47.5622 59.0961 47.5622 54.1103C47.5622 49.1245 51.6039 45.0828 56.5897 45.0828C61.5754 45.0828 65.6172 49.1245 65.6172 54.1103C65.6172 59.0961 61.5754 63.1378 56.5897 63.1378Z" fill="#FFF7F5"/>
<path d="M59.657 45.633C63.1284 46.8944 65.6094 50.2093 65.6094 54.1081C65.6094 57.7983 63.389 60.9673 60.2095 62.3642C56.8216 61.0298 54.424 57.7357 54.424 53.8787C54.424 50.2302 56.5714 47.0924 59.657 45.633Z" fill="black"/>
<path d="M91.8551 107.553C87.4977 107.553 83.1299 107.553 78.7725 107.553C78.0636 107.553 78.0636 106.459 78.7725 106.459C83.1299 106.459 87.4977 106.459 91.8551 106.459C92.5535 106.459 92.5639 107.553 91.8551 107.553Z" fill="#CD00FE"/>
<path d="M69.8199 107.556C65.5772 107.556 61.3241 107.556 57.0813 107.556C56.3725 107.556 56.3725 106.462 57.0813 106.462C61.3241 106.462 65.5772 106.462 69.8199 106.462C70.5288 106.462 70.5288 107.556 69.8199 107.556Z" fill="#CD00FE"/>
<path d="M28.3633 70.5156C28.3633 76.593 28.3633 82.6808 28.3633 88.7583C28.3633 89.4671 27.2687 89.4671 27.2687 88.7583C27.2687 82.6808 27.2687 76.593 27.2687 70.5156C27.2687 69.8067 28.3633 69.8067 28.3633 70.5156Z" fill="#CD00FE"/>
<path d="M121.148 69.1399C121.148 74.1853 121.148 79.2411 121.148 84.2865C121.148 84.9954 120.054 84.9954 120.054 84.2865C120.054 79.2411 120.054 74.1853 120.054 69.1399C120.054 68.431 121.148 68.431 121.148 69.1399Z" fill="#CD00FE"/>
<path d="M13.455 127.297C13.528 129.09 13.3091 130.894 12.8087 132.624C12.6107 133.302 11.5578 133.01 11.7559 132.332C12.225 130.696 12.423 129.007 12.3605 127.297C12.3292 126.599 13.4238 126.599 13.455 127.297Z" fill="#CD00FE"/>
<path d="M7.77676 126.069C7.44318 127.675 7.1096 129.291 6.78645 130.896C6.7239 131.188 6.3799 131.355 6.10887 131.282C5.80656 131.198 5.67105 130.896 5.72317 130.604C6.05675 128.999 6.39033 127.383 6.71349 125.778C6.77603 125.486 7.12003 125.319 7.39106 125.392C7.69337 125.486 7.83931 125.778 7.77676 126.069Z" fill="#CD00FE"/>
</svg>
