<svg width="81" height="78" viewBox="0 0 81 78" fill="none" xmlns="http://www.w3.org/2000/svg">
<g opacity="0.5">
<path d="M62.0821 46.3812C64.6965 51.0823 67.306 55.7834 69.9204 60.4845C70.4187 61.3823 70.9218 62.285 71.3313 63.2321C71.5878 63.8241 71.8196 64.4555 72.1501 64.9981C72.4461 65.4766 72.9591 65.7529 73.3538 65.5802C73.556 65.4964 73.6941 65.3188 73.7237 65.0179C73.778 64.4111 73.4919 63.5774 73.2206 62.9707C73.699 63.7797 74.1726 64.5887 74.6511 65.3977C75.0013 65.9897 75.391 66.626 75.9386 66.9121C76.4812 67.1982 77.3839 66.8973 77.2804 66.2314C77.744 66.5865 78.336 66.5816 78.6665 66.2166C78.997 65.8515 78.923 65.304 78.6467 64.7416C79.288 65.4076 80.6051 64.9389 80.3239 64.0362C79.954 62.8474 67.1728 40.5553 63.9122 35.2031C63.5965 34.69 63.1229 34.3053 62.6346 34.251C62.5951 34.2461 62.5556 34.2461 62.526 34.251C60.3901 34.5125 62.748 44.0775 62.0821 46.3812Z" fill="#BAE8FD"/>
<path d="M40.5355 58.086C40.6489 58.5299 31.5033 75.4796 31.5033 75.4796L22.6537 72.6283C22.3034 72.5149 22.3133 72.0166 22.6685 71.918L28.0306 70.4628C28.1292 70.4381 28.2131 70.369 28.2575 70.2802L35.5088 56.8577L40.5355 58.086Z" fill="#BAE8FD"/>
<path d="M47.2891 58.182L47.4568 68.3291L58.2155 73.1239L59.3895 77.4649C59.4783 77.8004 59.942 77.8349 60.085 77.5192C61.116 75.1859 63.6762 69.3995 63.6762 69.6659C63.6762 70.0013 53.4207 65.4285 53.4207 65.4285L53.0852 57.4026L47.2891 58.182Z" fill="#BAE8FD"/>
<path d="M43.6553 60.2792C57.3616 60.2792 68.4728 49.1679 68.4728 35.4615C68.4728 21.7551 57.3616 10.6438 43.6553 10.6438C29.949 10.6438 18.8379 21.7551 18.8379 35.4615C18.8379 49.1679 29.949 60.2792 43.6553 60.2792Z" fill="#BAE8FD"/>
<path d="M15.4395 30.7986C15.4395 38.1882 21.428 44.1768 28.8175 44.1768C36.207 44.1768 42.1955 38.1882 42.1955 30.7986C42.1955 23.409 36.207 17.4204 28.8175 17.4204C21.428 17.4204 15.4395 23.414 15.4395 30.7986ZM16.7763 30.7986C16.7763 24.149 22.168 18.7572 28.8175 18.7572C35.4671 18.7572 40.8587 24.149 40.8587 30.7986C40.8587 37.4482 35.4671 42.8399 28.8175 42.8399C22.168 42.8399 16.7763 37.4482 16.7763 30.7986Z" fill="#0EA5E9"/>
<path d="M51.9554 36.3292C54.3047 36.0146 55.9543 33.8551 55.6397 31.5058C55.3252 29.1564 53.1657 27.5068 50.8164 27.8214C48.467 28.1359 46.8175 30.2954 47.132 32.6448C47.4465 34.9941 49.606 36.6437 51.9554 36.3292Z" fill="white"/>
<path d="M50.1149 27.967C51.7575 28.5442 52.9414 30.1079 52.9414 31.9479C52.9414 33.9261 51.575 35.5885 49.735 36.0423C48.1762 35.401 47.0762 33.8669 47.0762 32.0762C47.0762 30.1375 48.3538 28.5047 50.1149 27.967Z" fill="black"/>
<path d="M33.4271 37.6934C36.6855 37.6934 39.3269 35.052 39.3269 31.7936C39.3269 28.5352 36.6855 25.8938 33.4271 25.8938C30.1688 25.8938 27.5273 28.5352 27.5273 31.7936C27.5273 35.052 30.1688 37.6934 33.4271 37.6934Z" fill="white"/>
<path d="M31.7055 26.1506C33.9697 26.9399 35.5927 29.0907 35.5927 31.6262C35.5927 34.3492 33.7132 36.6332 31.1826 37.2547C29.0368 36.3717 27.5273 34.2604 27.5273 31.7989C27.5273 29.1351 29.2884 26.8856 31.7055 26.1506Z" fill="black"/>
<path d="M45.8433 31.1029C45.8285 32.0205 45.7347 33.1205 44.8123 33.5891C44.4177 33.7914 43.949 33.8013 43.5692 33.5546C43.2091 33.3228 42.9871 32.938 42.8539 32.5433C42.6763 32.0007 42.6566 31.4088 42.7355 30.8464C42.7553 30.7083 42.9279 30.6343 43.0512 30.6688C43.1992 30.7083 43.2486 30.8464 43.2288 30.9845C43.1696 31.394 43.1943 31.8281 43.2929 32.2276C43.3669 32.5286 43.5001 32.8344 43.7369 33.0465C44.2647 33.5201 44.9504 32.9972 45.1576 32.4595C45.3204 32.0254 45.3253 31.5568 45.3302 31.1029C45.3401 30.7724 45.8482 30.7724 45.8433 31.1029Z" fill="black"/>
<path d="M10.8679 56.6343L19.5843 39.6057C19.6041 39.6205 19.6238 39.6402 19.6435 39.66C20.1023 40.2766 20.6696 40.8192 21.3503 41.1892C21.523 41.2829 21.6956 41.3618 21.8732 41.4309L13.4182 57.9415C13.0581 58.6469 12.1948 58.9281 11.4894 58.5631C10.789 58.203 10.5078 57.3397 10.8679 56.6343Z" fill="#0EA5E9"/>
<path d="M8.28199 43.9738C9.03179 43.372 10.1812 43.0218 11.0938 42.7801C14.0436 42.0056 17.0724 41.7836 20.1012 42.119L20.9004 34.9071C16.9836 34.473 13.062 34.7591 9.24885 35.7605C7.64072 36.1798 5.56399 36.8507 3.74868 38.3059C1.54367 40.0719 0.280831 42.6518 0.369624 45.2071C0.453483 47.6341 1.74098 49.9871 3.89172 51.6643C5.49985 52.9173 7.31516 53.6079 8.88876 54.1604C9.46591 54.3626 9.93454 54.4613 10.3736 54.5057C10.9852 54.9842 11.7449 55.2752 12.5194 55.2604C12.9781 55.2506 13.4418 55.147 13.8858 55.2654C14.606 55.4627 15.2177 56.2421 15.9379 56.03C16.4558 55.8771 16.6877 55.2604 16.6827 54.7178C16.6778 54.3676 16.5989 54.0223 16.4657 53.7016C16.6778 53.9384 16.9146 54.1061 17.2352 54.0815C17.5953 54.0568 17.8962 53.751 18.0097 53.4057C18.1182 53.0603 18.0738 52.6805 17.9752 52.3303C17.7877 51.6594 17.4128 51.0428 16.9146 50.5544C17.3289 50.806 17.7778 50.9244 18.1626 50.6679C18.4734 50.4607 18.6066 50.0611 18.6115 49.6862C18.6214 49.1633 18.4142 48.6453 18.0541 48.2655C17.2747 47.4516 16.002 47.4318 14.8724 47.4713C14.0831 47.4713 12.8943 47.3381 12.1346 47.5848C11.8485 47.491 11.5673 47.3973 11.2911 47.2986C10.2108 46.9237 9.10087 46.5044 8.36093 45.9273C7.86764 45.5425 7.63581 45.1133 7.63087 44.9308C7.61607 44.7976 7.8035 44.3537 8.28199 43.9738Z" fill="#BAE8FD"/>
<path d="M47.5289 59.0311C49.211 59.0311 50.8981 59.0311 52.5802 59.0311C52.9156 59.0311 52.9156 58.5132 52.5802 58.5132C50.8981 58.5132 49.211 58.5132 47.5289 58.5132C47.1935 58.5132 47.1935 59.0311 47.5289 59.0311Z" fill="#0EA5E9"/>
<path d="M34.6561 59.0868C36.1212 59.0868 37.5912 59.0868 39.0563 59.0868C39.3917 59.0868 39.3917 58.5688 39.0563 58.5688C37.5912 58.5688 36.1261 58.5688 34.6561 58.5688C34.3256 58.5688 34.3256 59.0868 34.6561 59.0868Z" fill="#0EA5E9"/>
<path d="M66.6377 41.1045C65.4686 43.4526 64.2946 45.8007 63.1255 48.1487C62.9775 48.4447 63.4214 48.7111 63.5744 48.4102C64.7435 46.0621 65.9175 43.714 67.0866 41.3659C67.2346 41.07 66.7906 40.8036 66.6377 41.1045Z" fill="#0EA5E9"/>
<path d="M77.166 62.9257C77.6347 63.641 78.1082 64.3563 78.5769 65.0666C78.6558 65.185 78.8038 65.2344 78.932 65.1604C79.0504 65.0913 79.0997 64.9236 79.0257 64.8052C78.5571 64.0899 78.0836 63.3746 77.6149 62.6643C77.536 62.5459 77.388 62.4966 77.2598 62.5706C77.1414 62.6396 77.0871 62.8074 77.166 62.9257Z" fill="#0EA5E9"/>
<path d="M75.5068 63.8456C76.0741 64.6694 76.4391 65.6067 77.0064 66.4305C77.0853 66.5439 77.2333 66.5982 77.3616 66.5242C77.475 66.4552 77.5342 66.2874 77.4553 66.169C76.888 65.3452 76.523 64.408 75.9557 63.5842C75.8768 63.4707 75.7288 63.4165 75.6005 63.4904C75.4871 63.5595 75.4279 63.7322 75.5068 63.8456Z" fill="#0EA5E9"/>
<path d="M17.4768 50.6204C16.5839 49.619 15.1978 49.0961 13.8708 49.2639C13.7327 49.2836 13.6094 49.3724 13.6094 49.5204C13.6094 49.6486 13.7277 49.7966 13.8708 49.7818C15.0794 49.6289 16.2978 50.0778 17.1117 50.9854C17.3288 51.237 17.6987 50.872 17.4768 50.6204Z" fill="#0EA5E9"/>
<path d="M16.7385 53.9124C16.4179 53.3501 15.9246 52.9258 15.3228 52.6792C14.6914 52.4227 13.9959 52.3832 13.32 52.3487C12.9846 52.329 12.9895 52.8469 13.32 52.8666C13.912 52.8962 14.5187 52.9308 15.0811 53.1429C15.5941 53.3353 16.0184 53.7003 16.2897 54.1739C16.4574 54.4649 16.9063 54.2035 16.7385 53.9124Z" fill="#0EA5E9"/>
<path d="M44.0488 0.708124C44.0488 3.08581 44.0488 5.45856 44.0488 7.83625C44.0488 8.17169 44.5668 8.17169 44.5668 7.83625C44.5668 5.45856 44.5668 3.08581 44.5668 0.708124C44.5668 0.372683 44.0488 0.372683 44.0488 0.708124Z" fill="#0EA5E9"/>
<path d="M51.0315 2.49835C50.2176 4.70338 49.3396 6.88868 48.4072 9.04438C48.274 9.3453 48.7229 9.61167 48.8561 9.30583C49.8082 7.10573 50.701 4.88097 51.5347 2.63647C51.6432 2.32077 51.145 2.18758 51.0315 2.49835Z" fill="#0EA5E9"/>
<path d="M36.6661 3.04221C37.771 5.23245 38.9697 7.36842 40.2622 9.45012C40.4397 9.7313 40.8837 9.47479 40.7111 9.18868C39.4186 7.10697 38.2199 4.96607 37.115 2.78077C36.962 2.48479 36.5132 2.74624 36.6661 3.04221Z" fill="#0EA5E9"/>
</g>
</svg>
