<svg width="376" height="96" viewBox="0 0 376 96" fill="none" xmlns="http://www.w3.org/2000/svg">
<g clip-path="url(#clip0_1230_26599)">
<path d="M0.863281 0.456543H375.863V75.4565C375.863 86.5022 366.909 95.4565 355.863 95.4565H20.8633C9.81759 95.4565 0.863281 86.5022 0.863281 75.4565V0.456543Z" fill="#0046B0"/>
<g style="mix-blend-mode:soft-light">
<path d="M53.7678 73.7699C46.28 69.4982 39.8768 60.6065 35.6063 53.2179C32.7352 48.2491 28.0005 40.7277 29.9478 34.412C30.7281 31.8868 32.7133 29.4187 35.0122 28.1082C38.1382 26.3261 41.2534 27.1359 44.2787 28.0169C52.3378 35.7162 55.3348 53.0492 66.6194 57.5666C68.4586 58.2982 70.8487 58.4922 72.7377 57.3787C77.7192 54.4563 79.6396 36.4757 81.3175 30.7437C83.6488 22.7548 88.5201 16.0341 95.654 11.6005C108.509 3.60763 122.508 6.51458 132.212 16.0664C135.915 19.7079 140.77 29.8904 146.037 30.5607C147.281 30.7204 148.349 30.537 149.433 29.7578C150.902 28.7025 152.139 26.8407 152.53 25.0899C154.263 17.3142 147.522 6.72003 143.826 0.793398C142.025 -1.3031 139.699 -3.31883 138.248 -5.6605C136.982 -7.71152 136.246 -10.0419 136.987 -12.5866C138.102 -16.3947 141.665 -18.9842 144.788 -21.0912C147.786 -21.5203 150.15 -21.0607 152.569 -19.4357C160.969 -13.7666 169.75 4.12534 171.208 14.6323C172.385 23.0898 171.49 31.3684 166.204 38.8546C161.925 44.9163 155.829 48.8076 148.842 50.2455C137.961 52.4927 129.343 46.0405 123.45 38.0338C121.001 34.7035 118.502 30.2708 115.039 27.9897C112.94 26.6089 109.884 26.0134 107.312 26.7597C98.4577 29.3397 98.0004 44.8879 96.0939 52.3457C95.0239 56.536 93.4524 60.695 91.1514 64.4493C87.3332 70.6763 81.0082 75.8404 74.1281 77.7213C66.3668 79.8397 60.0225 77.4848 53.7678 73.7699Z" fill="#ECA1FE" fill-opacity="0.3"/>
<g clip-path="url(#clip1_1230_26599)">
<path d="M338.71 81.6129C338.517 82.4225 338.315 83.2595 337.948 84.0064C337.128 85.6688 335.523 87.3729 333.748 88.0052C328.425 89.902 305.113 79.0486 299.408 76.1717C290.621 71.7379 282.209 65.9692 279.063 56.127C274.59 42.1355 286.355 29.8139 292.305 18.2802C292.268 17.6134 292.248 16.9367 292.165 16.2724C290.717 4.76622 259.885 -1.97076 251.155 -8.88902C248.346 -11.1156 247.499 -13.2076 247.125 -16.696C247.524 -18.5996 248.012 -20.1319 249.409 -21.5615C250.87 -23.0621 252.874 -23.6975 254.937 -23.638C256.466 -23.593 258.045 -23.2173 259.476 -22.683C264.334 -20.8803 269.123 -18.1597 273.797 -15.8766C280.381 -12.6545 287.452 -9.59331 293.656 -5.71607C296.677 -3.82942 299.641 -1.60427 302.011 1.06217C310.338 10.4066 308.847 21.8187 302.843 31.9434C299.84 37.0092 294.112 43.4781 293.953 49.4379C293.889 51.8394 294.592 54.0538 296.194 55.8671C303.227 63.8593 331.98 69.8982 337.351 75.943C338.768 77.5724 338.76 79.5836 338.71 81.6129Z" fill="#B5E0FF" fill-opacity="0.5"/>
</g>
</g>
</g>
<defs>
<clipPath id="clip0_1230_26599">
<path d="M0.863281 0.456543H375.863V75.4565C375.863 86.5022 366.909 95.4565 355.863 95.4565H20.8633C9.81759 95.4565 0.863281 86.5022 0.863281 75.4565V0.456543Z" fill="white"/>
</clipPath>
<clipPath id="clip1_1230_26599">
<rect width="88.2427" height="114.474" fill="white" transform="translate(359.861 4.90845) rotate(105.4)"/>
</clipPath>
</defs>
</svg>
