<svg width="83" height="78" viewBox="0 0 83 78" fill="none" xmlns="http://www.w3.org/2000/svg">
<g filter="url(#filter0_f_1219_26488)">
<path fill-rule="evenodd" clip-rule="evenodd" d="M42.8625 24.3766V24.3766L43.0824 24.2375L43.3053 24.0948L43.5315 23.9487L43.7613 23.7999L43.9949 23.6488L44.2325 23.4958L44.4743 23.3417L44.7206 23.1868L44.9713 23.0316L45.2267 22.8767L45.4868 22.7224L45.7517 22.5693L46.0214 22.4175L46.296 22.2677L46.5755 22.1201L46.8599 21.9751L47.1491 21.833L47.4432 21.6942L47.742 21.559L48.0456 21.4279L48.3537 21.3012L48.6664 21.1791L48.9834 21.0622L49.3047 20.9508L49.6301 20.8453L49.9593 20.7461L50.2922 20.6537L50.6285 20.5684L50.9679 20.4908L51.3101 20.4212L51.6548 20.3602L52.0016 20.3082L52.35 20.2657L52.6998 20.233L53.0504 20.2106L53.4015 20.1989L53.7524 20.1981L54.1028 20.2087L54.4522 20.2309L54.7999 20.2651L55.1455 20.3113L55.4885 20.3699L55.8282 20.4409L56.1643 20.5246L56.4961 20.6209L56.823 20.7299L57.1446 20.8517L57.4604 20.9861L57.7697 21.1332L58.0722 21.2927L58.3674 21.4645L58.6548 21.6485L58.9339 21.8443L59.2044 22.0517L59.4659 22.2704L59.718 22.5001L59.9604 22.7403L60.1928 22.9906L60.415 23.2507L60.6268 23.52L60.8279 23.7981L61.0182 24.0844L61.1977 24.3785L61.3662 24.6798L61.5237 24.9878L61.6702 25.3018L61.8058 25.6214L61.9305 25.946L62.0445 26.275L62.1478 26.6079L62.2407 26.9441L62.3234 27.283L62.3961 27.6242L62.4591 27.9671L62.5126 28.3112L62.557 28.6561L62.5926 29.0012L62.6198 29.3461L62.6389 29.6904L62.6501 30.0339L62.6536 30.3761L62.6498 30.7168L62.6387 31.0559L62.6205 31.393L62.5953 31.728L62.5633 32.0608L62.5245 32.3911L62.479 32.7188L62.427 33.0438L62.3684 33.3659L62.3034 33.6851L62.2321 34.001L62.1546 34.3137L62.0711 34.6229L61.9817 34.9285L61.8868 35.2304L61.7865 35.5284L61.6812 35.8223L61.5712 36.112L61.4571 36.3974L61.3392 36.6783L61.2181 36.9547L61.0944 37.2263L60.9686 37.4933L60.8413 37.7554L60.713 38.0129L60.5844 38.2655L60.456 38.5135L60.3283 38.757L60.2019 38.9959L60.0774 39.2305L59.9552 39.461L59.8358 39.6875L59.7198 39.9102L59.6075 40.1295L59.4994 40.3456L59.3959 40.5588L59.2974 40.7693L59.2041 40.9776L59.1164 41.1839L59.0345 41.3887L58.9586 41.5923L58.8889 41.7951L58.8255 41.9974L58.7685 42.1997L58.7179 42.4022L58.6738 42.6056L58.6361 42.8099L58.6047 43.0158L58.5794 43.2235L58.5602 43.4333L58.5468 43.6456L58.5389 43.8608L58.5364 44.079L58.5388 44.3007L58.5458 44.5259L58.557 44.7551L58.5721 44.9883L58.5907 45.2257L58.6122 45.4676L58.6362 45.7139L58.6622 45.9649L58.6898 46.2206L58.7184 46.4809L58.7475 46.746L58.7766 47.0158L58.8052 47.2901L58.8327 47.5691L58.8587 47.8525L58.8825 48.1401L58.9034 48.4317L58.921 48.727L58.9344 49.0257L58.9431 49.3274L58.9464 49.6316L58.9435 49.9378L58.934 50.2455L58.9171 50.5541L58.8923 50.863L58.8591 51.1717L58.8169 51.4793L58.7652 51.7852L58.7038 52.0888L58.632 52.3893L58.5498 52.686L58.4566 52.9782L58.3525 53.265L58.2371 53.5459L58.1104 53.82L57.9723 54.0867L57.8227 54.3452L57.6617 54.5948L57.4894 54.8348L57.306 55.0647L57.1116 55.2838L56.9066 55.4916L56.6913 55.6876L56.4662 55.8716L56.2316 56.043L55.9882 56.2018L55.7364 56.3476L55.4768 56.4804L55.2101 56.6002L54.9369 56.7069L54.6579 56.8006L54.3737 56.8816L54.0849 56.95L53.7923 57.0061L53.4966 57.0503L53.1984 57.083L52.8982 57.1047L52.5969 57.1158L52.2949 57.1169L51.9927 57.1087L51.6911 57.0916L51.3904 57.0665L51.0911 57.0339L50.7936 56.9945L50.4983 56.9491L50.2056 56.8983L49.9157 56.8429L49.6289 56.7835L49.3454 56.7209L49.0653 56.6556L48.7887 56.5884L48.5158 56.52L48.2465 56.4507L47.9809 56.3814L47.7189 56.3124L47.4604 56.2443L47.2053 56.1775L46.9535 56.1124L46.7049 56.0494L46.4592 55.9888L46.2162 55.9309L45.9757 55.8758L45.7375 55.8239L45.5014 55.7751L45.2671 55.7296L45.0343 55.6875L44.8028 55.6485L44.5724 55.6125L44.3428 55.5793L44.1138 55.5486L43.8853 55.5199L43.6571 55.4929L43.429 55.4671L43.2009 55.4421L42.9729 55.4172L42.7448 55.3919L42.5166 55.3658L42.2884 55.3383L42.0602 55.3089L41.8321 55.2771L41.6042 55.2424L41.3766 55.2045L41.1495 55.1629L40.923 55.1173L40.6973 55.0674L40.4726 55.013L40.2489 54.954L40.0265 54.8902L39.8055 54.8215L39.586 54.7481L39.3681 54.6698L39.152 54.5869L38.9376 54.4993L38.7252 54.4074L38.5147 54.3112L38.3061 54.2109L38.0995 54.1069L37.8947 53.9993L37.6918 53.8885L37.4907 53.7747L37.2911 53.6583L37.0931 53.5396L36.8963 53.419L36.7007 53.2966L36.506 53.1729L36.312 53.0481L36.1185 52.9225L35.925 52.7965L35.7315 52.6702L35.5375 52.5439L35.3428 52.4178L35.1472 52.292L34.9501 52.1668L34.7515 52.0422L34.551 51.9183L34.3483 51.7951L34.1431 51.6727L33.9352 51.551L33.7244 51.43L33.5105 51.3094L33.2933 51.1894L33.0726 51.0695L32.8483 50.9497L32.6204 50.8297L32.3888 50.7093L32.1534 50.5882L31.9144 50.4661L31.6718 50.3427L31.4256 50.2177L31.1761 50.0906L30.9234 49.9612L30.6678 49.8292L30.4095 49.6941L30.1487 49.5556L29.8859 49.4134L29.6214 49.267L29.3555 49.1164L29.0884 48.9611L28.8206 48.801L28.5522 48.6358L28.2835 48.4655L28.0148 48.2899L27.7461 48.1088L27.4778 47.9222L27.2099 47.7299L26.9427 47.5319L26.6764 47.3282L26.4111 47.1186L26.147 46.9031L25.8843 46.6817L25.6233 46.4542L25.3641 46.2207L25.1071 45.9811L24.8525 45.7353L24.6006 45.4833L24.3519 45.2251L24.1067 44.9606L23.8656 44.6899L23.6289 44.4128L23.3974 44.1295L23.1715 43.84L22.9518 43.5442L22.7391 43.2424L22.5337 42.9346L22.3363 42.621L22.1476 42.3017L21.968 41.9771L21.7981 41.6472L21.6385 41.3125L21.4896 40.9731L21.3521 40.6294L21.2263 40.2818L21.1128 39.9307L21.0118 39.5763L20.924 39.2193L20.8495 38.8599L20.7887 38.4986L20.742 38.136L20.7094 37.7725L20.6913 37.4086L20.6878 37.0447L20.699 36.6815L20.725 36.3194L20.7657 35.9589L20.8213 35.6005L20.8915 35.2447L20.9763 34.8921L21.0756 34.5431L21.1891 34.1981L21.3167 33.8577L21.458 33.5222L21.6126 33.1921L21.7804 32.8678L21.9609 32.5497L22.1536 32.238L22.3582 31.9331L22.5742 31.6354L22.801 31.345L23.0382 31.0623L23.2853 30.7874L23.5417 30.5205L23.8068 30.2617L24.08 30.0112L24.3609 29.7691L24.6489 29.5354L24.9433 29.3102L25.2436 29.0934L25.5492 28.8851L25.8597 28.6852L26.1747 28.4938L26.4936 28.3108L26.8162 28.1362L27.1419 27.97L27.4705 27.8122L27.8015 27.6626L28.1347 27.5214L28.4698 27.3884L28.8063 27.2636L29.1441 27.1469L29.4827 27.0382L29.822 26.9374L30.1615 26.8444L30.5009 26.759L30.84 26.6811L31.1783 26.6105L31.5157 26.5469L31.8516 26.4901L32.1857 26.4397L32.5177 26.3954L32.8472 26.3568L33.1739 26.3234L33.4973 26.2949L33.8173 26.2706L34.1334 26.2502L34.4454 26.2332L34.7531 26.219L35.0563 26.2072L35.3548 26.1973L35.6484 26.1886L35.9371 26.1808L36.2207 26.1732L36.4993 26.1654L36.7726 26.1569L37.0409 26.1472L37.304 26.1358L37.5622 26.1222L37.8154 26.106L38.0639 26.0867L38.3077 26.064L38.547 26.0374L38.7821 26.0065L39.0132 25.9712L39.2406 25.9309L39.4645 25.8855L39.6853 25.8348L39.9032 25.7784L40.1187 25.7163L40.332 25.6483L40.5435 25.5743L40.7536 25.4942L40.9627 25.4081L41.1712 25.3159L41.3794 25.2178L41.5878 25.1138L41.7967 25.004L42.0065 24.8886L42.2176 24.768L42.4304 24.6422L42.6453 24.5116L42.8625 24.3766" fill="#9CF526"/>
</g>
<defs>
<filter id="filter0_f_1219_26488" x="0.6875" y="0.198242" width="81.9668" height="76.9185" filterUnits="userSpaceOnUse" color-interpolation-filters="sRGB">
<feFlood flood-opacity="0" result="BackgroundImageFix"/>
<feBlend mode="normal" in="SourceGraphic" in2="BackgroundImageFix" result="shape"/>
<feGaussianBlur stdDeviation="10" result="effect1_foregroundBlur_1219_26488"/>
</filter>
</defs>
</svg>
