<svg width="20" height="21" viewBox="0 0 20 21" fill="none" xmlns="http://www.w3.org/2000/svg">
<g id="discount 1" clip-path="url(#clip0_1288_285247)">
<path id="Vector" d="M19.0809 10.8034L19.9583 8.51484C20.0546 8.26236 19.9796 7.97613 19.7683 7.80489L17.866 6.2625L17.481 3.84141C17.4385 3.57393 17.2285 3.36519 16.961 3.3227L14.54 2.93772L12.9988 1.0341C12.8288 0.822868 12.5363 0.747873 12.2901 0.844116L10.0003 1.72281L7.71167 0.845366C7.45794 0.747873 7.17421 0.825368 7.00297 1.03535L5.46058 2.93897L3.03949 3.32395C2.77326 3.36644 2.56327 3.57643 2.52078 3.84266L2.1358 6.26375L0.232182 7.80614C0.0221967 7.97613 -0.0540481 8.26236 0.0421953 8.51484L0.919635 10.8034L0.0421953 13.092C-0.055298 13.3445 0.0221967 13.6307 0.232182 13.8007L2.1358 15.3419L2.52078 17.763C2.56327 18.0304 2.77201 18.2404 3.03949 18.2829L5.46058 18.6679L7.00297 20.5703C7.17421 20.7828 7.46044 20.8577 7.71292 20.7603L10.0003 19.8841L12.2889 20.7615C12.3614 20.789 12.4363 20.8027 12.5126 20.8027C12.6963 20.8027 12.8776 20.7215 12.9988 20.5703L14.54 18.6679L16.961 18.2829C17.2285 18.2404 17.4385 18.0304 17.481 17.763L17.866 15.3419L19.7683 13.8007C19.9796 13.6295 20.0546 13.3445 19.9583 13.092L19.0809 10.8034Z" fill="white"/>
<g id="Group">
<path id="Vector_2" d="M8.12536 9.55345C7.09168 9.55345 6.25049 8.71226 6.25049 7.67858C6.25049 6.6449 7.09168 5.80371 8.12536 5.80371C9.15904 5.80371 10.0002 6.6449 10.0002 7.67858C10.0002 8.71226 9.15904 9.55345 8.12536 9.55345ZM8.12536 7.05363C7.78038 7.05363 7.5004 7.33361 7.5004 7.67858C7.5004 8.02356 7.78038 8.30354 8.12536 8.30354C8.47034 8.30354 8.75032 8.02356 8.75032 7.67858C8.75032 7.33361 8.47034 7.05363 8.12536 7.05363Z" fill="#EC980C"/>
<path id="Vector_3" d="M11.8751 15.8025C10.8414 15.8025 10.0002 14.9613 10.0002 13.9276C10.0002 12.8939 10.8414 12.0527 11.8751 12.0527C12.9088 12.0527 13.75 12.8939 13.75 13.9276C13.75 14.9613 12.9088 15.8025 11.8751 15.8025ZM11.8751 13.3026C11.5314 13.3026 11.2502 13.5839 11.2502 13.9276C11.2502 14.2713 11.5314 14.5526 11.8751 14.5526C12.2188 14.5526 12.5001 14.2713 12.5001 13.9276C12.5001 13.5839 12.2188 13.3026 11.8751 13.3026Z" fill="#EC980C"/>
<path id="Vector_4" d="M6.87562 15.8027C6.74938 15.8027 6.62314 15.7652 6.51315 15.6865C6.23191 15.4853 6.16692 15.0953 6.36816 14.8141L12.6177 6.06466C12.819 5.78343 13.2089 5.71843 13.4902 5.91967C13.7714 6.11966 13.8351 6.51088 13.6352 6.79086L7.38559 15.5403C7.26184 15.7115 7.07061 15.8027 6.87562 15.8027Z" fill="#EC980C"/>
</g>
</g>
<defs>
<clipPath id="clip0_1288_285247">
<rect width="20" height="20" fill="white" transform="translate(0 0.802734)"/>
</clipPath>
</defs>
</svg>
