<svg width="18" height="19" viewBox="0 0 18 19" fill="none" xmlns="http://www.w3.org/2000/svg">
<g clip-path="url(#clip0_1288_280459)">
<path d="M17.1729 9.80337L17.9626 7.74363C18.0492 7.5164 17.9817 7.25879 17.7916 7.10468L16.0794 5.71652L15.733 3.53754C15.6947 3.29681 15.5057 3.10895 15.265 3.0707L13.086 2.72422L11.699 1.01097C11.546 0.820854 11.2828 0.753359 11.0611 0.839978L9.00029 1.6308L6.94055 0.841103C6.71219 0.753359 6.45684 0.823104 6.30272 1.01209L4.91457 2.72535L2.73559 3.07183C2.49598 3.11007 2.30699 3.29906 2.26875 3.53867L1.92227 5.71765L0.209013 7.1058C0.0200258 7.25879 -0.0485945 7.5164 0.0380246 7.74363L0.827721 9.80337L0.0380246 11.8631C-0.0497194 12.0903 0.0200258 12.3479 0.209013 12.5009L1.92227 13.888L2.26875 16.0669C2.30699 16.3077 2.49486 16.4967 2.73559 16.5349L4.91457 16.8814L6.30272 18.5935C6.45684 18.7848 6.71444 18.8522 6.94168 18.7645L9.00029 17.9759L11.06 18.7656C11.1253 18.7904 11.1928 18.8027 11.2614 18.8027C11.4267 18.8027 11.5899 18.7296 11.699 18.5935L13.086 16.8814L15.265 16.5349C15.5057 16.4967 15.6947 16.3077 15.733 16.0669L16.0794 13.888L17.7916 12.5009C17.9817 12.3468 18.0492 12.0903 17.9626 11.8631L17.1729 9.80337Z" fill="#FFAB1F"/>
<path d="M7.31287 8.67848C6.38256 8.67848 5.62549 7.92141 5.62549 6.9911C5.62549 6.06078 6.38256 5.30371 7.31287 5.30371C8.24318 5.30371 9.00026 6.06078 9.00026 6.9911C9.00026 7.92141 8.24318 8.67848 7.31287 8.67848ZM7.31287 6.42863C7.00239 6.42863 6.75041 6.68062 6.75041 6.9911C6.75041 7.30157 7.00239 7.55356 7.31287 7.55356C7.62335 7.55356 7.87533 7.30157 7.87533 6.9911C7.87533 6.68062 7.62335 6.42863 7.31287 6.42863Z" fill="white"/>
<path d="M10.6879 14.3025C9.75756 14.3025 9.00049 13.5454 9.00049 12.6151C9.00049 11.6848 9.75756 10.9277 10.6879 10.9277C11.6182 10.9277 12.3753 11.6848 12.3753 12.6151C12.3753 13.5454 11.6182 14.3025 10.6879 14.3025ZM10.6879 12.0527C10.3785 12.0527 10.1254 12.3058 10.1254 12.6151C10.1254 12.9245 10.3785 13.1776 10.6879 13.1776C10.9972 13.1776 11.2503 12.9245 11.2503 12.6151C11.2503 12.3058 10.9972 12.0527 10.6879 12.0527Z" fill="white"/>
<path d="M6.18794 14.3027C6.07432 14.3027 5.9607 14.269 5.86171 14.1981C5.6086 14.017 5.55011 13.666 5.73122 13.4129L11.3558 5.53847C11.5369 5.28536 11.8879 5.22686 12.141 5.40798C12.3941 5.58796 12.4515 5.94006 12.2715 6.19205L6.64691 14.0665C6.53554 14.2206 6.36342 14.3027 6.18794 14.3027Z" fill="white"/>
</g>
<defs>
<clipPath id="clip0_1288_280459">
<rect width="18" height="18" fill="white" transform="translate(0 0.802734)"/>
</clipPath>
</defs>
</svg>
