<svg width="143" height="60" viewBox="0 0 143 60" fill="none" xmlns="http://www.w3.org/2000/svg">
<g clip-path="url(#clip0_930_279350)">
<rect width="143" height="60" fill="white"/>
<path d="M38.7353 19.1356C37.1296 19.1356 35.5599 19.6201 34.2248 20.5278C32.8896 21.4354 31.849 22.7255 31.2345 24.2349C30.62 25.7443 30.4593 27.4052 30.7725 29.0075C31.0858 30.6099 31.859 32.0818 32.9945 33.237C34.1299 34.3922 35.5765 35.179 37.1514 35.4977C38.7263 35.8164 40.3588 35.6528 41.8423 35.0276C43.3258 34.4024 44.5938 33.3437 45.4859 31.9853C46.378 30.6268 46.8542 29.0298 46.8542 27.396C46.8519 25.2059 45.9958 23.1062 44.4737 21.5576C42.9517 20.0089 40.8879 19.1379 38.7353 19.1356ZM38.7353 32.903C37.6648 32.903 36.6184 32.58 35.7283 31.9749C34.8382 31.3698 34.1445 30.5097 33.7348 29.5034C33.3251 28.4972 33.218 27.3899 33.4268 26.3217C33.6356 25.2534 34.1511 24.2722 34.9081 23.502C35.6651 22.7319 36.6295 22.2074 37.6794 21.9949C38.7293 21.7824 39.8176 21.8915 40.8066 22.3083C41.7956 22.7251 42.641 23.4309 43.2357 24.3365C43.8304 25.2421 44.1479 26.3069 44.1479 27.396C44.1479 28.8566 43.5776 30.2573 42.5626 31.29C41.5475 32.3228 40.1708 32.903 38.7353 32.903ZM53.6198 27.7677C53.6266 27.5199 53.6266 27.2721 53.6198 27.0243L56.1434 23.8165C56.2758 23.6481 56.3674 23.4504 56.4108 23.2394C56.4543 23.0283 56.4485 22.8099 56.3938 22.6016C55.9801 21.0193 55.3612 19.5002 54.5535 18.0842C54.4477 17.8988 54.3009 17.7412 54.1247 17.6238C53.9486 17.5064 53.7479 17.4324 53.5387 17.4078L49.5266 16.9535C49.3597 16.7745 49.1906 16.6024 49.0192 16.4372L48.5456 12.3449C48.5212 12.1319 48.4483 11.9276 48.3326 11.7483C48.2169 11.569 48.0616 11.4198 47.8792 11.3124C46.4868 10.4921 44.9939 9.86306 43.4392 9.44172C43.2343 9.3863 43.0195 9.38063 42.8121 9.42517C42.6047 9.46971 42.4104 9.56321 42.245 9.69813L39.1007 12.252C38.8571 12.252 38.6136 12.252 38.37 12.252L35.2172 9.68953C35.0516 9.5549 34.8573 9.46171 34.6499 9.41747C34.4425 9.37323 34.2278 9.37918 34.023 9.43483C32.4682 9.85651 30.9752 10.4861 29.5831 11.3072C29.4009 11.4148 29.246 11.5642 29.1306 11.7434C29.0152 11.9227 28.9425 12.1269 28.9183 12.3397L28.4718 16.4286C28.2959 16.5996 28.1268 16.7717 27.9644 16.9449L23.9422 17.4147C23.7328 17.4395 23.532 17.5137 23.3558 17.6314C23.1796 17.7492 23.0329 17.9071 22.9273 18.0928C22.1211 19.5094 21.5029 21.0284 21.0887 22.6102C21.0343 22.8186 21.0287 23.0372 21.0725 23.2482C21.1163 23.4592 21.2082 23.6569 21.3408 23.8251L23.8508 27.0243C23.8508 27.2721 23.8508 27.5199 23.8508 27.7677L21.3323 30.9755C21.2 31.1439 21.1084 31.3416 21.0649 31.5527C21.0214 31.7637 21.0273 31.9822 21.082 32.1905C21.4957 33.7727 22.1145 35.2918 22.9222 36.7079C23.028 36.8932 23.1748 37.0508 23.351 37.1683C23.5272 37.2857 23.7279 37.3596 23.9371 37.3842L27.9492 37.8385C28.1172 38.0175 28.2863 38.1896 28.4566 38.3548L28.9251 42.4471C28.9495 42.6602 29.0224 42.8645 29.1381 43.0437C29.2538 43.223 29.4091 43.3723 29.5915 43.4797C30.9838 44.3 32.4768 44.929 34.0315 45.3503C34.2364 45.4057 34.4512 45.4114 34.6586 45.3669C34.866 45.3223 35.0603 45.2288 35.2256 45.0939L38.37 42.5401C38.6136 42.547 38.8571 42.547 39.1007 42.5401L42.2535 45.1077C42.419 45.2423 42.6133 45.3355 42.8207 45.3797C43.0282 45.424 43.2429 45.418 43.4476 45.3624C45.0027 44.9415 46.4958 44.3118 47.8876 43.49C48.0698 43.3824 48.2247 43.233 48.3401 43.0538C48.4555 42.8745 48.5282 42.6703 48.5523 42.4575L48.9989 38.3755C49.1748 38.2057 49.3439 38.0336 49.5063 37.8592L53.5285 37.3773C53.7379 37.3525 53.9387 37.2783 54.1149 37.1606C54.2911 37.0429 54.4378 36.8849 54.5434 36.6993C55.3496 35.2827 55.9678 33.7637 56.3819 32.1819C56.4364 31.9734 56.442 31.7549 56.3982 31.5439C56.3544 31.3328 56.2625 31.1352 56.1299 30.9669L53.6198 27.7677ZM50.8967 26.6491C50.9254 27.1466 50.9254 27.6454 50.8967 28.1429C50.8765 28.4835 50.9814 28.8196 51.191 29.086L53.5911 32.1371C53.3157 33.0277 52.963 33.8915 52.5373 34.7185L48.7147 35.1591C48.3818 35.1967 48.0745 35.3585 47.8521 35.6134C47.5265 35.986 47.1797 36.3388 46.8136 36.67C46.5631 36.8963 46.404 37.209 46.367 37.5477L45.9425 41.4335C45.1298 41.8669 44.2807 42.2257 43.4054 42.5057L40.4048 40.0637C40.1647 39.8685 39.8664 39.7623 39.5591 39.7625H39.4779C38.9889 39.7918 38.4987 39.7918 38.0097 39.7625C37.675 39.742 37.3446 39.8487 37.0828 40.062L34.0755 42.5057C33.2002 42.2254 32.3512 41.8667 31.5383 41.4335L31.1053 37.5494C31.0684 37.2107 30.9093 36.898 30.6588 36.6718C30.2926 36.3405 29.9459 35.9877 29.6203 35.6151C29.3979 35.3603 29.0905 35.1984 28.7577 35.1608L24.9384 34.7271C24.5125 33.9002 24.1599 33.0363 23.8847 32.1457L26.2848 29.0928C26.4944 28.8265 26.5993 28.4904 26.5791 28.1498C26.5503 27.6523 26.5503 27.1535 26.5791 26.656C26.5993 26.3154 26.4944 25.9794 26.2848 25.713L23.8847 22.6549C24.1601 21.7644 24.5127 20.9005 24.9384 20.0735L28.756 19.633C29.0889 19.5954 29.3962 19.4335 29.6186 19.1787C29.9442 18.8061 30.2909 18.4533 30.6571 18.122C30.9086 17.8956 31.0683 17.5822 31.1053 17.2426L31.5299 13.3585C32.3426 12.9252 33.1917 12.5664 34.067 12.2864L37.0676 14.7284C37.3294 14.9416 37.6597 15.0483 37.9945 15.0278C38.4835 14.9986 38.9737 14.9986 39.4627 15.0278C39.7974 15.0483 40.1277 14.9416 40.3895 14.7284L43.3952 12.2864C44.2705 12.5666 45.1195 12.9254 45.9323 13.3585L46.3653 17.2426C46.4023 17.5813 46.5614 17.894 46.8119 18.1203C47.1781 18.4516 47.5248 18.8044 47.8504 19.1769C48.0728 19.4318 48.3801 19.5937 48.713 19.6313L52.5323 20.0632C52.9582 20.8901 53.3108 21.754 53.586 22.6446L51.1859 25.6975C50.9743 25.9661 50.8693 26.3056 50.8916 26.6491H50.8967Z" fill="#005CFF"/>
<path d="M30.2766 47.2835L30.2766 47.2834L30.5144 46.1284L29.8418 45.99L30.5144 46.1284L31.3291 42.1702L31.3292 42.1701L32.0934 38.4546L34.7364 25.6083L35.7856 20.5089L36.5852 16.6232L36.5852 16.6231L37.3641 12.835C37.8601 10.4237 36.0596 8.12434 33.6024 8.12434H33.5131L33.4268 8.14717L-4.59844 18.2043L-5.41331 18.4198L-5.03753 19.1743L3.83352 36.9855L3.26352 47.1064L3.24083 47.5092L3.58166 47.7251L5.9254 49.2098L5.85181 49.5669L5.85177 49.5671L4.85789 54.3977L4.85782 54.398C4.743 54.9575 5.16038 55.5154 5.76336 55.5154H8.98981C9.43754 55.5154 9.80763 55.1968 9.89506 54.7754L9.89528 54.7743L10.7117 50.8077L10.7117 50.8077C10.7635 50.5557 10.9757 50.3916 11.2028 50.3916H22.7446H22.8108H26.5149C28.3436 50.3916 29.9056 49.0851 30.2766 47.2835Z" fill="white" stroke="white" stroke-width="1.37339"/>
<path d="M23.1235 47.2948L26.7926 47.2937C28.2455 47.2937 29.4992 46.2586 29.7981 44.8134L30.0293 43.6945L30.8219 39.8598L31.5657 36.2606L34.137 23.8156L35.1579 18.8751L35.9359 15.1111L36.6938 11.4412C37.0948 9.50106 35.6386 7.67725 33.6883 7.67725H17.4126C16.3182 7.67725 15.373 8.45684 15.1481 9.54612L14.7566 11.4412L13.9976 15.1111L13.2196 18.8751L12.1981 23.8156L9.6251 36.2606C9.24142 38.1158 10.6337 39.8598 12.4988 39.8598H23.3462C24.7278 39.8598 25.802 38.6365 25.6455 37.241L25.5356 36.2606L25.0846 32.2395L24.1394 23.8156L23.7322 20.1845C23.6536 19.4864 24.191 18.8751 24.8815 18.8751H28.2948C28.8423 18.8751 29.3146 18.485 29.4274 17.9409L29.7191 16.5294C29.87 15.7983 29.3214 15.1111 28.5865 15.1111H22.1021C20.7182 15.1111 19.6435 16.3384 19.8039 17.7362L19.9346 18.8756L20.5 23.8161L21.7756 34.949C21.8558 35.6476 21.3184 36.2612 20.6262 36.2612H14.6623C13.9275 36.2612 13.3789 35.574 13.5304 34.8429L15.8095 23.8161L16.8309 18.8756L17.6089 15.1117L18.1744 12.3759C18.2871 11.8313 18.7594 11.4418 19.3063 11.4418H31.6593C32.3942 11.4418 32.9428 12.129 32.7919 12.8596L32.3269 15.1117L31.5488 18.8756L30.5279 23.8161L27.9566 36.2612L27.2128 39.8604L26.6131 42.7609C26.5004 43.3056 26.0281 43.6951 25.4812 43.6951H10.9052C9.26329 43.6951 7.84636 44.8647 7.50867 46.4981L7.34376 47.2948L6.37614 51.9752C6.34585 52.1212 6.45579 52.2587 6.60276 52.2587H9.74177C9.85116 52.2587 9.94596 52.1805 9.96839 52.0716L10.7627 48.2289C10.8754 47.6843 11.3477 47.2948 11.8947 47.2948H23.1235Z" fill="#005CFF"/>
<path d="M64.1729 28.5503V13.7892H69.7153C74.3 13.7892 76.9898 16.5051 76.9898 21.1697C76.9898 25.8137 74.2797 28.5503 69.7153 28.5503H64.1729ZM69.6745 16.1941H66.9237V26.1454H69.6745C72.5273 26.1454 74.137 24.4039 74.137 21.1697C74.137 17.9356 72.5273 16.1941 69.6745 16.1941Z" fill="#005CFF"/>
<path d="M81.1837 17.8526V28.5503H78.6162V17.8526H81.1837ZM81.2041 13.3953V15.8416H78.5959V13.3953H81.2041Z" fill="#005CFF"/>
<path d="M87.5318 28.5089C84.4346 28.5089 82.784 26.021 82.784 23.0564C82.784 20.0917 84.3938 17.6039 87.5114 17.6039C88.9989 17.6039 90.0993 18.1843 90.8328 19.3246V17.8526H93.3188V28.1979C93.3188 31.1004 91.4441 32.8626 88.1227 32.8626C85.1885 32.8626 83.4565 31.4528 83.2935 29.1308H85.8202C85.9424 30.2711 86.7167 30.8516 88.1635 30.8516C89.8547 30.8516 90.7513 29.9394 90.7513 28.2601V26.9125C89.9974 27.9698 88.9174 28.5089 87.5318 28.5089ZM88.1024 19.76C86.4518 19.76 85.4126 21.0039 85.4126 23.0771C85.4126 25.1296 86.4518 26.3527 88.1024 26.3527C89.814 26.3527 90.8124 25.1296 90.8124 23.0564C90.8124 20.9832 89.814 19.76 88.1024 19.76Z" fill="#005CFF"/>
<path d="M97.9586 17.8526V28.5503H95.3911V17.8526H97.9586ZM97.979 13.3953V15.8416H95.3708V13.3953H97.979Z" fill="#005CFF"/>
<path d="M99.4775 23.6783H102.188C102.208 25.7722 103.431 26.6223 105.774 26.6223C107.669 26.6223 108.708 25.8759 108.708 24.4869C108.708 23.3259 107.995 22.8076 105.733 22.3515L104.51 22.1027C101.393 21.46 99.8442 20.0088 99.8442 17.6246C99.8442 15.0746 101.862 13.4575 105.224 13.4575C109.054 13.4575 111.031 15.1989 111.133 18.1843H108.464C108.362 16.5051 107.445 15.7172 105.264 15.7172C103.573 15.7172 102.656 16.3807 102.656 17.5417C102.656 18.7234 103.369 19.3039 105.489 19.7185L106.752 19.9673C110.155 20.6307 111.561 21.9368 111.561 24.3417C111.561 27.2235 109.381 28.882 105.692 28.882C101.76 28.882 99.4978 27.0162 99.4775 23.6783Z" fill="#005CFF"/>
<path d="M116.4 28.7991C114.098 28.7991 112.61 27.5967 112.61 25.5857C112.61 23.6369 113.955 22.4966 116.645 22.2478L118.234 22.1027C119.294 21.9576 119.722 21.6259 119.722 20.8795C119.722 19.9673 119.192 19.5527 117.806 19.5527C116.319 19.5527 115.728 20.0088 115.626 21.2527H113.099C113.242 18.827 114.831 17.6039 117.827 17.6039C120.741 17.6039 122.208 18.6819 122.208 20.8173V26.5186C122.208 27.4515 122.35 28.1357 122.636 28.5503H120.068C119.946 28.3223 119.844 27.8869 119.783 27.2442C119.07 28.2808 117.949 28.7991 116.4 28.7991ZM117.134 23.9478C115.769 24.1137 115.239 24.5698 115.239 25.482C115.239 26.3942 115.871 26.9332 117.012 26.9332C118.621 26.9332 119.722 26.0003 119.722 24.321V23.3466C119.477 23.5747 119.07 23.7198 118.52 23.782L117.134 23.9478Z" fill="#005CFF"/>
<path d="M126.673 13.7892V28.5503H124.105V13.7892H126.673Z" fill="#005CFF"/>
<path d="M128.273 23.2015C128.273 19.9673 130.189 17.6039 133.469 17.6039C136.831 17.6039 138.665 20.1332 138.665 23.3881V24.01H130.8C130.983 25.8344 131.961 26.7674 133.53 26.7674C134.692 26.7674 135.507 26.2491 135.935 25.2332H138.4C137.85 27.4101 136.016 28.7991 133.51 28.7991C130.25 28.7991 128.273 26.4357 128.273 23.2015ZM130.82 22.1856H136.098C135.874 20.61 134.916 19.6356 133.449 19.6356C131.941 19.6356 131.065 20.4856 130.82 22.1856Z" fill="#005CFF"/>
<rect x="64.0654" y="33.8745" width="74.7143" height="13.8213" rx="1.71674" fill="#005CFF"/>
<path d="M67.2021 43.0152C67.2021 41.9316 67.862 41.2956 69.1706 41.1189L70.647 40.9186C70.9266 40.8833 71.0608 40.7302 71.0608 40.4593V40.2001C71.0608 39.5759 70.6246 39.2579 69.7634 39.2579C68.9022 39.2579 68.5107 39.5523 68.4548 40.3415H67.437C67.5377 39.0223 68.3318 38.3627 69.8417 38.3627C71.3516 38.3627 72.1009 39.0105 72.1009 40.3061V43.2979C72.1009 43.6866 72.2351 43.8279 72.6042 43.8279H72.772V44.6289H72.224C71.6088 44.6289 71.2733 44.3344 71.2285 43.7337C70.8259 44.3815 70.0654 44.782 69.1371 44.782C67.9291 44.782 67.2021 44.1342 67.2021 43.0152ZM68.2199 42.9681C68.2199 43.5806 68.6449 43.9457 69.3272 43.9457C70.0989 43.9457 71.0608 43.4157 71.0608 42.497V41.6489L69.3384 41.9198C68.589 42.0376 68.2199 42.391 68.2199 42.9681Z" fill="white"/>
<path d="M73.5584 41.4958C73.5584 39.8821 74.386 38.4216 76.0525 38.4216C76.8131 38.4216 77.3947 38.7043 77.7973 39.2814V36.2425H78.8263V44.6289H77.9315V43.663C77.5736 44.3344 76.8802 44.7585 76.0749 44.7585C74.3413 44.7585 73.5584 43.133 73.5584 41.4958ZM76.1979 39.3521C75.169 39.3521 74.5874 40.1295 74.5874 41.4958C74.5874 42.5559 74.9788 43.8279 76.1756 43.8279C77.3835 43.8279 77.8532 42.6148 77.8532 41.5193C77.8532 40.1412 77.2157 39.3521 76.1979 39.3521Z" fill="white"/>
<path d="M80.6111 38.5511H81.5954L81.5506 39.4463C81.9421 38.7514 82.5349 38.398 83.3066 38.398C84.1231 38.398 84.6487 38.7514 84.906 39.4581C85.2862 38.7514 85.9014 38.398 86.7402 38.398C87.9146 38.398 88.5074 39.0812 88.5074 40.4593V44.6289H87.4784V40.471C87.4784 39.7643 87.1205 39.3403 86.483 39.3403C85.633 39.3403 85.0737 39.9763 85.0737 41.3309V44.6289H84.0448V40.471C84.0448 39.7643 83.6757 39.3403 83.0494 39.3403C82.2105 39.3403 81.6401 40.0235 81.6401 41.3898V44.6289H80.6111V38.5511Z" fill="white"/>
<path d="M90.2992 44.6289V38.5511H91.3282V44.6289H90.2992ZM90.288 37.2791V36.0776H91.3282V37.2791H90.288Z" fill="white"/>
<path d="M93.1172 38.5511H94.079V39.411C94.4929 38.7396 95.1416 38.398 96.0139 38.398C97.233 38.398 97.9712 39.1401 97.9712 40.4122V44.6289H96.9423V40.6242C96.9423 39.7643 96.562 39.3403 95.7903 39.3403C94.8172 39.3403 94.1461 39.9763 94.1461 41.2484V44.6289H93.1172V38.5511Z" fill="white"/>
<path d="M105.11 44.782C103.455 44.782 102.437 43.6277 102.437 41.6371C102.437 39.6112 103.466 38.398 105.166 38.398C106.519 38.398 107.414 39.1754 107.604 40.5417H106.631C106.475 39.7172 105.994 39.305 105.177 39.305C104.036 39.305 103.466 40.0706 103.466 41.59C103.466 43.0388 104.081 43.8751 105.166 43.8751C105.982 43.8751 106.475 43.4157 106.642 42.5087H107.604C107.392 43.9693 106.53 44.782 105.11 44.782Z" fill="white"/>
<path d="M108.663 41.5665C108.663 39.7761 109.58 38.4098 111.38 38.4098C113.002 38.4098 114.02 39.5641 114.02 41.4487V41.8491H109.692C109.725 43.1683 110.363 43.8868 111.436 43.8868C112.23 43.8868 112.767 43.4864 113.036 42.6736L113.975 42.7914C113.617 44.0517 112.667 44.7702 111.403 44.7702C109.613 44.7702 108.663 43.345 108.663 41.5665ZM111.392 39.2932C110.34 39.2932 109.803 40.0352 109.703 41.0718H113.058C112.935 40.047 112.443 39.2932 111.392 39.2932Z" fill="white"/>
<path d="M115.475 38.5511H116.437V39.411C116.851 38.7396 117.5 38.398 118.372 38.398C119.591 38.398 120.329 39.1401 120.329 40.4122V44.6289H119.3V40.6242C119.3 39.7643 118.92 39.3403 118.148 39.3403C117.175 39.3403 116.504 39.9763 116.504 41.2484V44.6289H115.475V38.5511Z" fill="white"/>
<path d="M121.668 39.3874V38.5511L122.53 38.5865V36.6901H123.559V38.5983L124.878 38.5511V39.3874L123.559 39.3403V43.133C123.559 43.5924 123.682 43.7219 124.118 43.7219H124.867V44.6289H123.816C122.921 44.6289 122.53 44.2166 122.53 43.2744V39.3403L121.668 39.3874Z" fill="white"/>
<path d="M125.778 41.5665C125.778 39.7761 126.695 38.4098 128.496 38.4098C130.117 38.4098 131.135 39.5641 131.135 41.4487V41.8491H126.807C126.84 43.1683 127.478 43.8868 128.552 43.8868C129.346 43.8868 129.883 43.4864 130.151 42.6736L131.091 42.7914C130.733 44.0517 129.782 44.7702 128.518 44.7702C126.729 44.7702 125.778 43.345 125.778 41.5665ZM128.507 39.2932C127.456 39.2932 126.919 40.0352 126.818 41.0718H130.173C130.05 40.047 129.558 39.2932 128.507 39.2932Z" fill="white"/>
<path d="M132.59 44.6289V38.5511H133.552V39.7761C133.955 38.8456 134.581 38.3862 135.431 38.3862C135.543 38.3862 135.61 38.3862 135.644 38.398V39.4581C135.588 39.4463 135.465 39.4463 135.275 39.4463C134.29 39.4463 133.653 40.3297 133.619 41.3073V44.6289H132.59Z" fill="white"/>
</g>
<defs>
<clipPath id="clip0_930_279350">
<rect width="143" height="60" fill="white"/>
</clipPath>
</defs>
</svg>
